<?xml version="1.0" encoding="utf-8"?>
<!-- Generator: Adobe Illustrator 17.0.0, SVG Export Plug-In . SVG Version: 6.00 Build 0)  -->
<!DOCTYPE svg PUBLIC "-//W3C//DTD SVG 1.1//EN" "http://www.w3.org/Graphics/SVG/1.1/DTD/svg11.dtd">
<svg version="1.1" id="Layer_1" xmlns="http://www.w3.org/2000/svg" xmlns:xlink="http://www.w3.org/1999/xlink" x="0px" y="0px"
	 width="567.176px" height="137.993px" viewBox="0 0 567.176 137.993" enable-background="new 0 0 567.176 137.993"
	 xml:space="preserve">
<path fill="#FFFFFF" d="M41.012,29.42v31.444c0,0.964-0.222,2.169-0.662,3.614c-0.442,1.446-1.306,2.731-2.59,3.855
	c1.284,1.126,2.148,2.43,2.59,3.916c0.441,1.487,0.662,2.671,0.662,3.554v32.77h6.627v6.867H36.314
	c-0.644,0-1.265-0.262-1.867-0.783c-0.602-0.523-0.904-1.466-0.904-2.831V77.972c0-1.606-0.403-3.072-1.205-4.397
	c-0.804-1.325-1.969-2.067-3.494-2.229v-6.265c0.802,0,1.506-0.241,2.108-0.723c0.602-0.482,1.103-1.043,1.506-1.687
	c0.401-0.642,0.682-1.344,0.843-2.108c0.16-0.762,0.241-1.386,0.241-1.867V26.167c0-1.525,0.361-2.509,1.084-2.952
	c0.723-0.441,1.284-0.663,1.687-0.663h11.325v6.867L41.012,29.42L41.012,29.42z"/>
<path fill="#FFFFFF" d="M90.045,112.91c-4.9,0-9.439-1.244-13.614-3.735c-4.177-2.489-7.43-5.702-9.759-9.638v12.168h-7.349V23.758
	h8.192V62.07c2.811-4.256,6.184-7.69,10.12-10.301c3.934-2.609,8.554-3.916,13.855-3.916c4.337,0,8.271,0.924,11.807,2.771
	c3.534,1.849,6.524,4.318,8.975,7.409c2.449,3.093,4.337,6.587,5.662,10.481c1.325,3.897,1.988,7.891,1.988,11.987
	c0,4.418-0.765,8.595-2.289,12.53c-1.526,3.936-3.635,7.37-6.325,10.301c-2.692,2.933-5.864,5.261-9.518,6.987
	C98.136,112.046,94.221,112.91,90.045,112.91z M88.117,105.682c3.452,0,6.605-0.702,9.458-2.108c2.85-1.404,5.301-3.292,7.349-5.662
	c2.048-2.368,3.654-5.06,4.819-8.072c1.164-3.012,1.747-6.124,1.747-9.337c0-3.292-0.542-6.464-1.626-9.517
	c-1.084-3.052-2.611-5.762-4.578-8.132c-1.969-2.368-4.318-4.256-7.048-5.662c-2.731-1.405-5.744-2.109-9.036-2.109
	c-2.49,0-4.819,0.422-6.987,1.265c-2.169,0.844-4.178,1.988-6.024,3.434c-1.849,1.446-3.515,3.114-4.999,5
	c-1.488,1.888-2.711,3.876-3.675,5.964v19.517c0.32,2.169,1.184,4.198,2.59,6.084c1.404,1.888,3.112,3.514,5.121,4.879
	c2.007,1.367,4.135,2.451,6.385,3.253C83.859,105.281,86.028,105.682,88.117,105.682z"/>
<path fill="#FFFFFF" d="M158.596,112.91c-4.578,0-8.795-0.864-12.65-2.59s-7.189-4.096-9.999-7.108
	c-2.812-3.012-4.999-6.485-6.566-10.421c-1.566-3.934-2.349-8.151-2.349-12.65c0-4.416,0.783-8.573,2.349-12.469
	c1.566-3.895,3.754-7.308,6.566-10.24c2.811-2.931,6.124-5.26,9.939-6.988c3.814-1.726,8.012-2.59,12.59-2.59
	s8.774,0.864,12.59,2.59c3.814,1.728,7.087,4.077,9.819,7.048c2.73,2.972,4.858,6.385,6.385,10.24
	c1.525,3.855,2.289,7.952,2.289,12.289c0,0.644-0.021,1.286-0.06,1.928c-0.042,0.644-0.102,1.084-0.181,1.325h-53.612
	c0.241,3.373,1.024,6.487,2.349,9.337c1.325,2.852,3.012,5.322,5.06,7.409c2.048,2.09,4.417,3.716,7.108,4.879
	c2.69,1.165,5.561,1.747,8.614,1.747c2.088,0,4.135-0.28,6.144-0.843c2.007-0.561,3.855-1.325,5.542-2.289
	c1.687-0.964,3.193-2.148,4.518-3.554c1.325-1.404,2.349-2.952,3.072-4.638l7.108,1.928c-0.964,2.33-2.331,4.439-4.096,6.325
	c-1.768,1.888-3.815,3.535-6.144,4.939c-2.33,1.406-4.9,2.491-7.711,3.253C164.458,112.528,161.566,112.91,158.596,112.91z
	 M181.727,77.008c-0.241-3.373-1.024-6.445-2.349-9.216s-3.012-5.16-5.06-7.168c-2.048-2.007-4.439-3.573-7.168-4.699
	c-2.732-1.124-5.623-1.687-8.675-1.687c-3.053,0-5.945,0.563-8.674,1.687c-2.731,1.126-5.12,2.692-7.168,4.699
	c-2.048,2.009-3.695,4.418-4.939,7.229c-1.246,2.812-1.988,5.864-2.229,9.156h46.262L181.727,77.008L181.727,77.008z"/>
<path fill="#FFFFFF" d="M244.254,111.705l-23.132-32.167l-13.493,12.53v19.638h-8.192V23.758h8.192v59.756l35.3-34.456h9.277
	L226.545,74.72l26.625,36.986L244.254,111.705L244.254,111.705z"/>
<path fill="#FFFFFF" d="M287.986,112.91c-4.578,0-8.795-0.864-12.65-2.59c-3.855-1.726-7.189-4.096-10-7.108
	c-2.812-3.012-4.999-6.485-6.566-10.421c-1.566-3.934-2.349-8.151-2.349-12.65c0-4.416,0.783-8.573,2.349-12.469
	c1.566-3.895,3.754-7.308,6.566-10.24c2.811-2.931,6.124-5.26,9.939-6.988c3.814-1.726,8.012-2.59,12.59-2.59
	s8.774,0.864,12.59,2.59c3.814,1.728,7.087,4.077,9.819,7.048c2.73,2.972,4.858,6.385,6.385,10.24
	c1.525,3.855,2.289,7.952,2.289,12.289c0,0.644-0.021,1.286-0.06,1.928c-0.042,0.644-0.102,1.084-0.181,1.325h-53.612
	c0.241,3.373,1.024,6.487,2.349,9.337c1.325,2.852,3.012,5.322,5.06,7.409c2.048,2.09,4.417,3.716,7.108,4.879
	c2.69,1.165,5.561,1.747,8.614,1.747c2.088,0,4.135-0.28,6.144-0.843c2.007-0.561,3.855-1.325,5.542-2.289
	c1.687-0.964,3.193-2.148,4.518-3.554c1.325-1.404,2.349-2.952,3.072-4.638l7.108,1.928c-0.964,2.33-2.33,4.439-4.096,6.325
	c-1.768,1.888-3.815,3.535-6.144,4.939c-2.331,1.406-4.9,2.491-7.711,3.253C293.848,112.528,290.957,112.91,287.986,112.91z
	 M311.117,77.008c-0.241-3.373-1.024-6.445-2.349-9.216s-3.012-5.16-5.06-7.168c-2.048-2.007-4.439-3.573-7.168-4.699
	c-2.732-1.124-5.623-1.687-8.675-1.687c-3.053,0-5.945,0.563-8.674,1.687c-2.731,1.126-5.12,2.692-7.168,4.699
	c-2.048,2.009-3.695,4.418-4.939,7.229c-1.246,2.812-1.988,5.864-2.229,9.156h46.262V77.008z"/>
<path fill="#FFFFFF" d="M360.15,56.166c-5.542,0.162-10.361,1.687-14.457,4.578s-6.988,6.867-8.674,11.927v39.034h-8.192V48.937
	h7.711v15.06c2.168-4.416,5.018-8.091,8.554-11.024c3.534-2.931,7.349-4.397,11.445-4.397c0.723,0,1.404,0,2.048,0
	c0.642,0,1.163,0.041,1.566,0.121v7.469H360.15z"/>
<path fill="#FFFFFF" d="M368.704,35.805V23.758h8.192v12.048L368.704,35.805L368.704,35.805z M368.704,111.705V48.937h8.192v62.768
	H368.704z"/>
<path fill="#FFFFFF" d="M444.844,111.705h-8.192V76.647c0-7.47-1.084-12.891-3.253-16.265c-2.168-3.373-5.542-5.06-10.12-5.06
	c-2.409,0-4.819,0.443-7.228,1.325c-2.409,0.885-4.659,2.129-6.747,3.735c-2.09,1.608-3.916,3.515-5.482,5.723
	c-1.566,2.21-2.752,4.599-3.554,7.168v38.432h-8.192V48.937h7.469v14.216c1.284-2.248,2.871-4.317,4.759-6.205
	c1.886-1.886,3.995-3.513,6.325-4.879c2.329-1.365,4.799-2.409,7.409-3.132c2.609-0.723,5.32-1.084,8.132-1.084
	c3.533,0,6.485,0.644,8.855,1.928c2.368,1.286,4.277,3.093,5.723,5.422c1.445,2.33,2.488,5.18,3.132,8.554
	c0.642,3.373,0.964,7.108,0.964,11.204L444.844,111.705L444.844,111.705z"/>
<path fill="#FFFFFF" d="M476.047,112.91c-3.214,0-6.145-0.503-8.795-1.506c-2.651-1.003-4.921-2.389-6.807-4.157
	c-1.888-1.766-3.355-3.814-4.398-6.144c-1.045-2.329-1.566-4.778-1.566-7.349c0-2.891,0.642-5.521,1.928-7.891
	c1.284-2.368,3.091-4.397,5.421-6.084c2.329-1.687,5.121-2.991,8.373-3.916c3.253-0.922,6.847-1.386,10.783-1.386
	c3.132,0,6.344,0.283,9.638,0.844c3.292,0.563,6.224,1.367,8.795,2.409v-5.662c0-5.542-1.586-9.939-4.759-13.192
	c-3.173-3.253-7.451-4.879-12.831-4.879c-3.373,0-6.728,0.644-10.06,1.928c-3.334,1.286-6.728,3.132-10.18,5.542l-2.892-5.422
	c4.096-2.73,8.072-4.778,11.927-6.144c3.855-1.365,7.871-2.048,12.048-2.048c7.63,0,13.693,2.21,18.192,6.626
	c4.497,4.418,6.747,10.523,6.747,18.313v28.312c0,2.249,0.964,3.373,2.892,3.373v7.229c-0.644,0.079-1.246,0.139-1.807,0.181
	c-0.563,0.04-1.045,0.06-1.446,0.06c-1.608,0-3.072-0.482-4.398-1.446c-1.325-0.964-2.069-2.409-2.229-4.337l-0.241-4.94
	c-2.732,3.695-6.325,6.566-10.783,8.614C485.143,111.886,480.625,112.91,476.047,112.91z M478.095,106.645
	c3.615,0,7.208-0.783,10.783-2.349c3.573-1.566,6.404-3.714,8.494-6.446c0.561-0.723,1.043-1.506,1.445-2.349
	c0.401-0.844,0.602-1.626,0.602-2.349v-10.24c-2.731-1.043-5.583-1.847-8.554-2.41c-2.972-0.561-5.864-0.843-8.674-0.843
	c-5.864,0-10.623,1.186-14.277,3.554c-3.656,2.37-5.482,5.643-5.482,9.819c0,1.687,0.32,3.334,0.964,4.94
	c0.642,1.608,1.626,3.053,2.951,4.337c1.325,1.286,2.952,2.33,4.879,3.132C473.155,106.244,475.444,106.645,478.095,106.645z"/>
<path fill="#FF0078" d="M519.657,29.42v-6.867h11.325c0.401,0,0.964,0.222,1.687,0.663c0.723,0.442,1.084,1.427,1.084,2.952v32.529
	c0,0.482,0.079,1.105,0.241,1.867c0.16,0.764,0.421,1.466,0.783,2.108c0.361,0.644,0.822,1.205,1.385,1.687
	c0.561,0.482,1.284,0.723,2.169,0.723v6.265c-1.527,0.162-2.671,0.904-3.434,2.229c-0.765,1.325-1.145,2.792-1.145,4.397v33.854
	c0,1.365-0.301,2.308-0.904,2.831c-0.602,0.521-1.226,0.783-1.868,0.783h-11.325v-6.867h6.627v-32.77c0-0.883,0.2-2.067,0.602-3.554
	c0.401-1.485,1.244-2.79,2.53-3.916c-1.286-1.124-2.129-2.409-2.53-3.855c-0.403-1.446-0.602-2.65-0.602-3.614V29.42H519.657z"/>
</svg>
