<?xml version="1.0" encoding="utf-8"?>
<!-- Generator: Adobe Illustrator 17.0.0, SVG Export Plug-In . SVG Version: 6.00 Build 0)  -->
<!DOCTYPE svg PUBLIC "-//W3C//DTD SVG 1.1//EN" "http://www.w3.org/Graphics/SVG/1.1/DTD/svg11.dtd">
<svg version="1.1" id="Layer_1" xmlns="http://www.w3.org/2000/svg" xmlns:xlink="http://www.w3.org/1999/xlink" x="0px" y="0px"
	 width="150px" height="150px" viewBox="-4.956 -6.004 150 150" enable-background="new -4.956 -6.004 150 150"
	 xml:space="preserve">
<g>
	<path fill="#606FFF" d="M26.076,16.853v41.429c0,1.27-0.292,2.858-0.872,4.762c-0.582,1.905-1.721,3.598-3.412,5.079
		c1.692,1.484,2.83,3.202,3.412,5.16c0.581,1.959,0.872,3.519,0.872,4.683v43.176h8.731v9.048H19.886
		c-0.849,0-1.667-0.345-2.46-1.032c-0.793-0.689-1.191-1.932-1.191-3.73V80.823c0-2.116-0.531-4.048-1.588-5.793
		c-1.059-1.746-2.594-2.723-4.604-2.937v-8.254c1.057,0,1.984-0.318,2.777-0.953c0.793-0.635,1.453-1.374,1.984-2.223
		c0.528-0.846,0.899-1.771,1.111-2.777c0.211-1.004,0.318-1.826,0.318-2.46V12.567c0-2.009,0.476-3.306,1.428-3.889
		c0.953-0.581,1.692-0.874,2.223-0.874h14.921v9.048L26.076,16.853L26.076,16.853z"/>
	<path fill="#606FFF" d="M90.68,126.855c-6.456,0-12.436-1.639-17.937-4.921c-5.503-3.279-9.789-7.513-12.858-12.699v16.032h-9.683
		V9.393h10.793v50.478c3.704-5.608,8.148-10.132,13.334-13.572c5.183-3.437,11.27-5.16,18.255-5.16
		c5.714,0,10.897,1.217,15.556,3.651c4.656,2.436,8.596,5.689,11.825,9.762c3.227,4.075,5.714,8.679,7.46,13.809
		c1.746,5.135,2.619,10.397,2.619,15.793c0,5.821-1.008,11.324-3.016,16.509c-2.011,5.186-4.789,9.71-8.334,13.572
		c-3.547,3.864-7.726,6.932-12.54,9.206C101.34,125.717,96.182,126.855,90.68,126.855z M88.139,117.332
		c4.548,0,8.702-0.925,12.461-2.777c3.755-1.85,6.984-4.337,9.683-7.46c2.698-3.12,4.814-6.667,6.349-10.635
		c1.534-3.968,2.302-8.069,2.302-12.302c0-4.337-0.714-8.517-2.142-12.539c-1.428-4.021-3.44-7.592-6.032-10.714
		c-2.594-3.12-5.689-5.608-9.286-7.46c-3.598-1.851-7.568-2.779-11.905-2.779c-3.281,0-6.349,0.556-9.206,1.667
		c-2.858,1.112-5.505,2.619-7.937,4.524c-2.436,1.905-4.631,4.103-6.586,6.588c-1.961,2.488-3.572,5.107-4.842,7.858v25.715
		c0.422,2.858,1.56,5.531,3.412,8.016c1.85,2.488,4.1,4.63,6.747,6.428c2.644,1.801,5.448,3.229,8.413,4.286
		C82.529,116.804,85.387,117.332,88.139,117.332z"/>
</g>
</svg>
