<?xml version="1.0" encoding="utf-8"?>
<!-- Generator: Adobe Illustrator 17.0.0, SVG Export Plug-In . SVG Version: 6.00 Build 0)  -->
<!DOCTYPE svg PUBLIC "-//W3C//DTD SVG 1.1//EN" "http://www.w3.org/Graphics/SVG/1.1/DTD/svg11.dtd">
<svg version="1.1" id="Layer_1" xmlns="http://www.w3.org/2000/svg" xmlns:xlink="http://www.w3.org/1999/xlink" x="0px" y="0px"
	 width="1280px" height="1093.234px" viewBox="0 0 1280 1093.234" enable-background="new 0 0 1280 1093.234" xml:space="preserve">
<g>
	<g>
		<g enable-background="new    ">
			<g>
				<linearGradient id="SVGID_2_" gradientUnits="userSpaceOnUse" x1="650.9268" y1="238.7442" x2="695.9443" y2="238.7442">
					<stop  offset="0.0105" style="stop-color:#00B0FF"/>
					<stop  offset="1" style="stop-color:#FFEA00"/>
				</linearGradient>
				<polygon fill="url(#SVGID_2_)" points="690.925,208.6 695.944,221.251 655.948,268.888 650.927,256.237 				"/>
			</g>
			<g>
				<linearGradient id="SVGID_3_" gradientUnits="userSpaceOnUse" x1="690.9248" y1="229.0835" x2="746.0088" y2="229.0835">
					<stop  offset="0" style="stop-color:#FFEA00"/>
					<stop  offset="0.9895" style="stop-color:#00B0FF"/>
				</linearGradient>
				<polygon fill="url(#SVGID_3_)" points="740.991,236.916 746.009,249.567 695.944,221.251 690.925,208.6 				"/>
			</g>
			<g>
				<linearGradient id="SVGID_4_" gradientUnits="userSpaceOnUse" x1="633.7236" y1="285.8233" x2="707.9443" y2="285.8233">
					<stop  offset="0.0105" style="stop-color:#00B0FF"/>
					<stop  offset="1" style="stop-color:#FFEA00"/>
				</linearGradient>
				<polygon fill="url(#SVGID_4_)" points="702.925,299.06 707.944,311.711 638.741,272.586 633.724,259.935 				"/>
			</g>
			<g>
				<linearGradient id="SVGID_5_" gradientUnits="userSpaceOnUse" x1="702.9248" y1="272.4644" x2="763.2158" y2="272.4644">
					<stop  offset="0" style="stop-color:#FFEA00"/>
					<stop  offset="0.9895" style="stop-color:#00B0FF"/>
				</linearGradient>
				<polygon fill="url(#SVGID_5_)" points="758.194,233.217 763.216,245.869 707.944,311.711 702.925,299.06 				"/>
			</g>
			<g>
				<linearGradient id="SVGID_6_" gradientUnits="userSpaceOnUse" x1="633.7236" y1="246.5762" x2="758.1943" y2="246.5762">
					<stop  offset="0" style="stop-color:#FFFF8D"/>
					<stop  offset="0.9895" style="stop-color:#40C4FF"/>
				</linearGradient>
				<path fill="url(#SVGID_6_)" d="M688.993,194.092l69.201,39.125l-55.269,65.843l-69.201-39.125L688.993,194.092z
					 M700.991,284.552l40-47.637L690.925,208.6l-39.998,47.637L700.991,284.552"/>
			</g>
		</g>
	</g>
	<g>
		<g enable-background="new    ">
			<linearGradient id="SVGID_7_" gradientUnits="userSpaceOnUse" x1="80.5723" y1="817.3082" x2="143.9841" y2="817.3082">
				<stop  offset="0" style="stop-color:#FF80AB"/>
				<stop  offset="0.9895" style="stop-color:#40C4FF"/>
			</linearGradient>
			<path fill="url(#SVGID_7_)" d="M143.857,820.945c0.039-0.327,0.07-0.652,0.092-0.975c0.004-0.083,0.018-0.166,0.021-0.247
				c0.004-0.055-0.006-0.105-0.004-0.159c0.029-0.662,0.021-1.315-0.023-1.957c-0.002-0.044,0.002-0.091-0.002-0.134
				c-0.004-0.065-0.02-0.126-0.025-0.191c-0.053-0.575-0.125-1.144-0.234-1.699c0-0.007-0.002-0.015-0.002-0.022
				c-0.006-0.027-0.018-0.054-0.021-0.082c-0.098-0.481-0.225-0.953-0.365-1.417c-0.021-0.066-0.031-0.134-0.053-0.198
				c-0.016-0.054-0.039-0.104-0.059-0.158c-0.152-0.466-0.324-0.924-0.52-1.371c-0.004-0.007-0.004-0.013-0.008-0.02
				c-0.146-0.328-0.305-0.65-0.471-0.968l-12.467-23.424c0.172,0.322,0.332,0.652,0.479,0.987c0.197,0.446,0.367,0.904,0.521,1.37
				c0.039,0.118,0.074,0.237,0.109,0.357c0.143,0.465,0.268,0.937,0.367,1.417c0.008,0.033,0.018,0.067,0.023,0.103
				c0.109,0.556,0.182,1.124,0.234,1.698c0.01,0.109,0.02,0.218,0.027,0.328c0.043,0.642,0.053,1.294,0.025,1.955
				c-0.006,0.135-0.012,0.269-0.021,0.405c-0.02,0.322-0.053,0.647-0.092,0.976c-0.016,0.147-0.031,0.295-0.051,0.445
				c-0.064,0.464-0.145,0.93-0.246,1.4c-0.002,0.007-0.002,0.013-0.006,0.02c-0.119,0.557-0.273,1.117-0.445,1.68
				c-0.043,0.141-0.084,0.281-0.131,0.422c-0.184,0.563-0.383,1.128-0.619,1.694c0,0,0,0.004-0.002,0.006
				c-0.232,0.568-0.504,1.137-0.791,1.704c-0.074,0.143-0.145,0.285-0.221,0.428c-0.301,0.57-0.619,1.141-0.973,1.71
				c-0.469,0.753-0.986,1.479-1.523,2.19c-0.232,0.307-0.471,0.61-0.713,0.911c-0.152,0.186-0.301,0.374-0.457,0.556
				c-0.334,0.392-0.68,0.773-1.033,1.148c-0.109,0.118-0.215,0.24-0.33,0.358c-0.098,0.102-0.205,0.197-0.305,0.299
				c-0.504,0.509-1.025,1.004-1.564,1.482c-0.229,0.204-0.461,0.4-0.695,0.597c-0.361,0.308-0.729,0.607-1.104,0.899
				c-0.264,0.206-0.533,0.409-0.803,0.608c-0.328,0.242-0.66,0.477-0.996,0.709c-0.293,0.198-0.586,0.396-0.883,0.588
				c-0.316,0.205-0.639,0.403-0.961,0.599c-0.313,0.189-0.627,0.374-0.943,0.555c-0.32,0.182-0.646,0.355-0.973,0.528
				c-0.322,0.17-0.646,0.338-0.975,0.499c-0.338,0.165-0.678,0.325-1.02,0.479c-0.324,0.148-0.648,0.293-0.975,0.432
				c-0.379,0.158-0.758,0.308-1.139,0.454c-0.313,0.12-0.627,0.24-0.943,0.353c-0.447,0.158-0.898,0.302-1.35,0.441
				c-0.283,0.088-0.564,0.18-0.848,0.261c-0.797,0.227-1.596,0.431-2.398,0.599c-0.633,0.133-1.266,0.242-1.899,0.338
				c-0.189,0.028-0.379,0.05-0.566,0.074c-0.377,0.051-0.75,0.09-1.125,0.125c-0.896,0.087-1.793,0.149-2.682,0.156
				c-2.365,0.019-4.684-0.249-6.895-0.835c-5.328-1.405-9.156-4.422-11.238-8.331l12.465,23.424c2.082,3.911,5.91,6.927,11.24,8.332
				c2.209,0.586,4.529,0.854,6.895,0.835c0.887-0.007,1.781-0.069,2.68-0.156c0.109-0.011,0.219-0.007,0.328-0.018
				c0.266-0.029,0.531-0.07,0.797-0.107c0.189-0.025,0.379-0.046,0.566-0.075c0.629-0.094,1.258-0.202,1.885-0.333
				c0.004-0.001,0.01-0.003,0.014-0.004c0.803-0.168,1.604-0.373,2.4-0.599c0.072-0.02,0.146-0.033,0.217-0.055
				c0.211-0.061,0.418-0.14,0.627-0.205c0.453-0.141,0.902-0.283,1.352-0.443c0.115-0.04,0.232-0.071,0.346-0.111
				c0.203-0.074,0.4-0.164,0.6-0.242c0.383-0.145,0.758-0.294,1.135-0.452c0.135-0.058,0.273-0.105,0.41-0.164
				c0.189-0.083,0.375-0.18,0.566-0.267c0.344-0.155,0.684-0.314,1.021-0.481c0.141-0.069,0.285-0.13,0.426-0.201
				c0.188-0.095,0.365-0.202,0.549-0.298c0.326-0.173,0.65-0.347,0.971-0.529c0.141-0.078,0.285-0.148,0.422-0.229
				c0.178-0.102,0.346-0.218,0.52-0.323c0.324-0.195,0.646-0.394,0.963-0.599c0.139-0.09,0.281-0.169,0.418-0.261
				c0.158-0.105,0.311-0.223,0.469-0.331c0.332-0.231,0.666-0.465,0.992-0.706c0.143-0.104,0.291-0.199,0.432-0.307
				c0.129-0.097,0.244-0.203,0.371-0.303c0.377-0.291,0.744-0.593,1.105-0.898c0.152-0.128,0.313-0.245,0.461-0.377
				c0.082-0.07,0.154-0.148,0.232-0.219c0.537-0.479,1.059-0.973,1.563-1.482c0.08-0.081,0.172-0.155,0.252-0.237
				c0.02-0.02,0.039-0.043,0.057-0.063c0.113-0.115,0.215-0.236,0.324-0.354c0.355-0.377,0.703-0.759,1.039-1.151
				c0.154-0.183,0.303-0.37,0.455-0.557c0.178-0.219,0.363-0.434,0.537-0.657c0.064-0.082,0.115-0.171,0.178-0.254
				c0.535-0.711,1.053-1.435,1.521-2.188c0.355-0.569,0.672-1.14,0.971-1.71c0.078-0.144,0.15-0.285,0.223-0.428
				c0.287-0.568,0.557-1.138,0.793-1.704c0-0.003,0-0.004,0.002-0.006c0.234-0.567,0.434-1.132,0.617-1.695
				c0.045-0.141,0.09-0.28,0.133-0.421c0.17-0.563,0.324-1.123,0.445-1.68c0,0,0-0.001,0-0.002c0.004-0.006,0.004-0.013,0.004-0.018
				c0.102-0.47,0.18-0.937,0.246-1.401C143.826,821.24,143.84,821.094,143.857,820.945z"/>
			<g>
				<linearGradient id="SVGID_8_" gradientUnits="userSpaceOnUse" x1="78.7639" y1="801.0123" x2="131.5288" y2="801.0123">
					<stop  offset="0" style="stop-color:#FF4081"/>
					<stop  offset="0.9895" style="stop-color:#00B0FF"/>
				</linearGradient>
				<path fill="url(#SVGID_8_)" d="M111.59,778.758c2.365-0.019,4.688,0.25,6.898,0.835c12.563,3.316,16.781,15.601,9.418,27.437
					c-6.076,9.747-18.123,16.149-29.201,16.237c-2.365,0.019-4.686-0.249-6.895-0.835c-12.572-3.315-16.792-15.6-9.416-27.437
					C88.459,785.249,100.504,778.848,111.59,778.758z"/>
			</g>
		</g>
	</g>
	<g>
		<g enable-background="new    ">
			<g>
				<linearGradient id="SVGID_9_" gradientUnits="userSpaceOnUse" x1="110.0156" y1="453.9268" x2="145.459" y2="453.9268">
					<stop  offset="0.0105" style="stop-color:#D500F9"/>
					<stop  offset="1" style="stop-color:#FFEA00"/>
				</linearGradient>
				<polygon fill="url(#SVGID_9_)" points="145.459,475.242 127.056,465.231 110.016,432.612 128.418,442.623 				"/>
			</g>
			<g>
				<linearGradient id="SVGID_10_" gradientUnits="userSpaceOnUse" x1="110.0156" y1="426.105" x2="160.9126" y2="426.105">
					<stop  offset="0" style="stop-color:#FFEA00"/>
					<stop  offset="0.9895" style="stop-color:#D500F9"/>
				</linearGradient>
				<polygon fill="url(#SVGID_10_)" points="128.418,442.623 110.016,432.612 142.509,409.587 160.913,419.598 				"/>
			</g>
			<g>
				<linearGradient id="SVGID_11_" gradientUnits="userSpaceOnUse" x1="128.418" y1="447.42" x2="177.9526" y2="447.42">
					<stop  offset="0" style="stop-color:#FFFF8D"/>
					<stop  offset="0.9895" style="stop-color:#E040FB"/>
				</linearGradient>
				<polygon fill="url(#SVGID_11_)" points="160.913,419.598 177.953,452.217 145.459,475.242 128.418,442.623 				"/>
			</g>
		</g>
	</g>
	<g>
		<g enable-background="new    ">
			<g>
				<linearGradient id="SVGID_12_" gradientUnits="userSpaceOnUse" x1="933.4911" y1="813.4088" x2="981.123" y2="813.4088">
					<stop  offset="0" style="stop-color:#FFEA00"/>
					<stop  offset="0.9895" style="stop-color:#D500F9"/>
				</linearGradient>
				<polygon fill="url(#SVGID_12_)" points="971.306,822.179 933.491,826.176 943.309,804.637 981.123,800.642 				"/>
			</g>
			<g>
				<linearGradient id="SVGID_13_" gradientUnits="userSpaceOnUse" x1="937.104" y1="765.3589" x2="976.7549" y2="805.0098">
					<stop  offset="0" style="stop-color:#FFFF8D"/>
					<stop  offset="0.9895" style="stop-color:#E040FB"/>
				</linearGradient>
				<polygon fill="url(#SVGID_13_)" points="981.123,800.642 943.309,804.637 932.735,769.728 970.55,765.732 				"/>
			</g>
			<g>
				<linearGradient id="SVGID_14_" gradientUnits="userSpaceOnUse" x1="922.9141" y1="797.9517" x2="943.3086" y2="797.9517">
					<stop  offset="0" style="stop-color:#FFEA00"/>
					<stop  offset="0.9895" style="stop-color:#D500F9"/>
				</linearGradient>
				<polygon fill="url(#SVGID_14_)" points="932.735,769.728 943.309,804.637 933.491,826.176 922.914,791.264 				"/>
			</g>
		</g>
	</g>
	<g>
		<g enable-background="new    ">
			<g>
				<linearGradient id="SVGID_15_" gradientUnits="userSpaceOnUse" x1="546.1235" y1="899.4898" x2="593.7563" y2="899.4898">
					<stop  offset="0" style="stop-color:#FF4081"/>
					<stop  offset="0.9895" style="stop-color:#00B0FF"/>
				</linearGradient>
				<polygon fill="url(#SVGID_15_)" points="583.938,908.262 546.123,912.257 555.942,890.719 593.756,886.723 				"/>
			</g>
			<g>
				<linearGradient id="SVGID_16_" gradientUnits="userSpaceOnUse" x1="545.3696" y1="871.2662" x2="593.7563" y2="871.2662">
					<stop  offset="0" style="stop-color:#FF80AB"/>
					<stop  offset="0.9895" style="stop-color:#40C4FF"/>
				</linearGradient>
				<polygon fill="url(#SVGID_16_)" points="593.756,886.723 555.942,890.719 545.37,855.81 583.184,851.813 				"/>
			</g>
			<g>
				<linearGradient id="SVGID_17_" gradientUnits="userSpaceOnUse" x1="545.7437" y1="912.2569" x2="545.7437" y2="855.8096">
					<stop  offset="0.0105" style="stop-color:#00B0FF"/>
					<stop  offset="1" style="stop-color:#FF4081"/>
				</linearGradient>
				<polygon fill="url(#SVGID_17_)" points="545.37,855.81 555.942,890.719 546.123,912.257 535.545,877.345 				"/>
			</g>
		</g>
	</g>
	<g>
		<g enable-background="new    ">
			<g>
				<linearGradient id="SVGID_18_" gradientUnits="userSpaceOnUse" x1="554.8325" y1="265.669" x2="602.4653" y2="265.669">
					<stop  offset="0" style="stop-color:#FF4081"/>
					<stop  offset="0.9895" style="stop-color:#00B0FF"/>
				</linearGradient>
				<polygon fill="url(#SVGID_18_)" points="592.647,274.441 554.832,278.436 564.651,256.898 602.465,252.902 				"/>
			</g>
			<g>
				<linearGradient id="SVGID_19_" gradientUnits="userSpaceOnUse" x1="554.0786" y1="237.4453" x2="602.4653" y2="237.4453">
					<stop  offset="0" style="stop-color:#FF80AB"/>
					<stop  offset="0.9895" style="stop-color:#40C4FF"/>
				</linearGradient>
				<polygon fill="url(#SVGID_19_)" points="602.465,252.902 564.651,256.898 554.079,221.989 591.893,217.993 				"/>
			</g>
			<g>
				<linearGradient id="SVGID_20_" gradientUnits="userSpaceOnUse" x1="554.4526" y1="278.4361" x2="554.4526" y2="221.9888">
					<stop  offset="0.0105" style="stop-color:#00B0FF"/>
					<stop  offset="1" style="stop-color:#FF4081"/>
				</linearGradient>
				<polygon fill="url(#SVGID_20_)" points="554.079,221.989 564.651,256.898 554.832,278.436 544.254,243.524 				"/>
			</g>
		</g>
	</g>
	<g>
		<g>
			<g enable-background="new    ">
				<g>
					<linearGradient id="SVGID_21_" gradientUnits="userSpaceOnUse" x1="406.0889" y1="849.7774" x2="448.5615" y2="849.7774">
						<stop  offset="0" style="stop-color:#D500F9"/>
						<stop  offset="0.9895" style="stop-color:#2979FF"/>
					</linearGradient>
					<polygon fill="url(#SVGID_21_)" points="448.561,886.607 422.092,886.83 406.089,812.945 432.558,812.725 					"/>
				</g>
				<g>
					<linearGradient id="SVGID_22_" gradientUnits="userSpaceOnUse" x1="319.5811" y1="822.4522" x2="443.6543" y2="822.4522">
						<stop  offset="0" style="stop-color:#D500F9"/>
						<stop  offset="0.9895" style="stop-color:#2979FF"/>
					</linearGradient>
					<polygon fill="url(#SVGID_22_)" points="346.051,876.709 319.581,876.932 417.184,768.194 443.654,767.973 					"/>
				</g>
				<g>
					<linearGradient id="SVGID_23_" gradientUnits="userSpaceOnUse" x1="319.5811" y1="898.5479" x2="476.6094" y2="898.5479">
						<stop  offset="0" style="stop-color:#D500F9"/>
						<stop  offset="0.9895" style="stop-color:#2979FF"/>
					</linearGradient>
					<polygon fill="url(#SVGID_23_)" points="476.609,920.166 450.139,920.387 319.581,876.932 346.051,876.709 					"/>
				</g>
				<g>
					<linearGradient id="SVGID_24_" gradientUnits="userSpaceOnUse" x1="346.0508" y1="844.0694" x2="476.6094" y2="844.0694">
						<stop  offset="0" style="stop-color:#EA80FC"/>
						<stop  offset="0.9895" style="stop-color:#40C4FF"/>
					</linearGradient>
					<path fill="url(#SVGID_24_)" d="M443.654,767.973l32.955,152.193l-130.559-43.457L443.654,767.973z M385.183,865.509
						l63.379,21.099l-16.004-73.883L385.183,865.509"/>
				</g>
			</g>
		</g>
		<g opacity="0.74">
			<linearGradient id="SVGID_25_" gradientUnits="userSpaceOnUse" x1="319.5811" y1="898.5479" x2="476.6094" y2="898.5479">
				<stop  offset="0" style="stop-color:#D500F9"/>
				<stop  offset="0.9895" style="stop-color:#2979FF"/>
			</linearGradient>
			<polygon fill="url(#SVGID_25_)" points="476.609,920.166 450.139,920.387 319.581,876.932 346.051,876.709 			"/>
		</g>
	</g>
	<g>
		<g>
			<g enable-background="new    ">
				<g>
					<linearGradient id="SVGID_26_" gradientUnits="userSpaceOnUse" x1="977.3506" y1="484.7383" x2="1140.4248" y2="484.7383">
						<stop  offset="0.0105" style="stop-color:#69F0AE"/>
						<stop  offset="1" style="stop-color:#00B0FF"/>
					</linearGradient>
					<polygon fill="url(#SVGID_26_)" points="1140.425,442.415 1126.878,458.031 977.351,527.062 990.899,511.446 					"/>
				</g>
				<g>
					<linearGradient id="SVGID_27_" gradientUnits="userSpaceOnUse" x1="963.9736" y1="511.5221" x2="990.8994" y2="511.5221">
						<stop  offset="0.0105" style="stop-color:#69F0AE"/>
						<stop  offset="1" style="stop-color:#00B0FF"/>
					</linearGradient>
					<polygon fill="url(#SVGID_27_)" points="990.899,511.446 977.351,527.062 963.974,511.598 977.524,495.982 					"/>
				</g>
				<g>
					<linearGradient id="SVGID_28_" gradientUnits="userSpaceOnUse" x1="977.5244" y1="469.1983" x2="1140.4248" y2="469.1983">
						<stop  offset="0" style="stop-color:#40C4FF"/>
						<stop  offset="0.9895" style="stop-color:#69F0AE"/>
					</linearGradient>
					<polygon fill="url(#SVGID_28_)" points="1127.052,426.951 1140.425,442.415 990.899,511.446 977.524,495.982 					"/>
				</g>
			</g>
		</g>
		<g opacity="0.59">
			<linearGradient id="SVGID_29_" gradientUnits="userSpaceOnUse" x1="963.9736" y1="511.5221" x2="990.8994" y2="511.5221">
				<stop  offset="0.0105" style="stop-color:#69F0AE"/>
				<stop  offset="1" style="stop-color:#00B0FF"/>
			</linearGradient>
			<polygon fill="url(#SVGID_29_)" points="990.899,511.446 977.351,527.062 963.974,511.598 977.524,495.982 			"/>
		</g>
	</g>
	<g>
		<g enable-background="new    ">
			<linearGradient id="SVGID_30_" gradientUnits="userSpaceOnUse" x1="1009.7139" y1="325.4537" x2="1128.4796" y2="325.4537">
				<stop  offset="0" style="stop-color:#FFEA00"/>
				<stop  offset="0.9895" style="stop-color:#D500F9"/>
			</linearGradient>
			<path fill="url(#SVGID_30_)" d="M1126.026,330.165c0.123-0.439,0.26-0.875,0.373-1.313c0.139-0.526,0.256-1.055,0.379-1.584
				c0.1-0.426,0.213-0.853,0.305-1.28c0.117-0.542,0.211-1.086,0.313-1.629c0.078-0.415,0.17-0.83,0.238-1.245
				c0.096-0.568,0.17-1.136,0.248-1.705c0.055-0.392,0.121-0.784,0.168-1.177c0.07-0.574,0.115-1.15,0.168-1.725
				c0.035-0.387,0.082-0.773,0.111-1.16c0.045-0.624,0.064-1.249,0.088-1.873c0.014-0.335,0.041-0.671,0.049-1.007
				c0.021-0.958,0.018-1.916-0.01-2.872c-0.377-13.059-5.326-23.676-13.291-30.826l-18.943-17
				c7.967,7.15,12.914,17.768,13.293,30.826c0.029,0.956,0.031,1.913,0.01,2.874c-0.008,0.338-0.033,0.677-0.047,1.016
				c-0.027,0.621-0.047,1.242-0.09,1.864c-0.027,0.389-0.076,0.78-0.111,1.169c-0.055,0.572-0.098,1.143-0.166,1.715
				c-0.049,0.394-0.117,0.789-0.172,1.184c-0.078,0.566-0.15,1.131-0.246,1.697c-0.068,0.415-0.158,0.83-0.238,1.245
				c-0.102,0.543-0.197,1.086-0.314,1.629c-0.09,0.43-0.203,0.858-0.305,1.287c-0.123,0.525-0.24,1.052-0.375,1.576
				c-0.117,0.442-0.25,0.881-0.377,1.322c-0.143,0.509-0.279,1.019-0.436,1.524c-0.137,0.446-0.293,0.889-0.439,1.332
				c-0.164,0.498-0.318,0.996-0.494,1.491c-0.379,1.073-0.791,2.14-1.223,3.201c-0.127,0.312-0.264,0.621-0.395,0.934
				c-0.32,0.757-0.65,1.51-0.996,2.26c-0.188,0.412-0.383,0.822-0.582,1.231c-0.232,0.486-0.471,0.97-0.717,1.452
				c-0.221,0.439-0.449,0.876-0.682,1.312c-0.254,0.479-0.514,0.955-0.777,1.431c-0.254,0.456-0.512,0.911-0.775,1.363
				c-0.219,0.373-0.438,0.745-0.662,1.116c-0.287,0.478-0.582,0.953-0.881,1.424c-0.229,0.364-0.459,0.729-0.695,1.088
				c-0.195,0.3-0.4,0.596-0.6,0.893c-0.875,1.304-1.779,2.592-2.73,3.849c-0.059,0.081-0.123,0.157-0.186,0.238
				c-0.877,1.153-1.793,2.283-2.73,3.394c-0.18,0.212-0.355,0.427-0.537,0.639c-0.953,1.107-1.938,2.189-2.947,3.247
				c-0.201,0.212-0.408,0.421-0.613,0.631c-1.031,1.06-2.084,2.1-3.168,3.104c-0.043,0.038-0.082,0.078-0.121,0.116
				c-1.158,1.066-2.354,2.09-3.566,3.088c-0.279,0.229-0.555,0.461-0.836,0.686c-0.326,0.261-0.656,0.517-0.984,0.772
				c-0.455,0.353-0.912,0.704-1.373,1.047c-0.34,0.251-0.68,0.5-1.023,0.747c-0.436,0.313-0.875,0.621-1.318,0.925
				c-0.439,0.301-0.879,0.599-1.322,0.892c-0.424,0.28-0.848,0.555-1.277,0.825c-0.449,0.285-0.902,0.563-1.355,0.838
				c-0.393,0.237-0.787,0.469-1.184,0.699c-0.711,0.412-1.432,0.811-2.154,1.2c-0.324,0.174-0.648,0.353-0.975,0.522
				c-1.031,0.536-2.072,1.051-3.125,1.535c-0.012,0.006-0.023,0.011-0.033,0.017c-1.242,0.568-2.502,1.087-3.77,1.58
				c-0.316,0.124-0.633,0.246-0.951,0.365c-1.277,0.476-2.564,0.929-3.863,1.328c-1.039,0.318-2.07,0.599-3.098,0.857
				c-0.328,0.083-0.654,0.152-0.982,0.23c-0.701,0.164-1.396,0.32-2.09,0.458c-0.377,0.074-0.75,0.14-1.125,0.207
				c-0.65,0.114-1.295,0.219-1.936,0.311c-0.375,0.053-0.748,0.106-1.119,0.152c-0.668,0.082-1.33,0.146-1.986,0.204
				c-0.326,0.028-0.652,0.062-0.977,0.085c-0.873,0.059-1.734,0.097-2.592,0.111c-0.1,0.002-0.205,0.011-0.305,0.012
				c-0.955,0.012-1.898-0.008-2.832-0.05c-0.289-0.013-0.57-0.038-0.855-0.057c-0.615-0.038-1.227-0.083-1.832-0.146
				c-0.672-0.069-1.334-0.16-1.99-0.256c-0.377-0.055-0.756-0.099-1.125-0.163c-0.789-0.133-1.561-0.298-2.33-0.473
				c-0.23-0.052-0.467-0.091-0.695-0.146c-0.24-0.06-0.471-0.133-0.709-0.195c-0.641-0.169-1.281-0.34-1.906-0.537
				c-0.324-0.101-0.635-0.218-0.955-0.326c-0.537-0.182-1.076-0.366-1.6-0.57c-0.266-0.103-0.525-0.212-0.785-0.319
				c-0.535-0.222-1.064-0.45-1.586-0.692c-0.271-0.125-0.541-0.253-0.807-0.385c-0.57-0.279-1.131-0.572-1.684-0.877
				c-0.162-0.091-0.33-0.175-0.492-0.268c-0.709-0.405-1.402-0.832-2.078-1.279c-0.148-0.098-0.289-0.2-0.432-0.297
				c-0.539-0.367-1.064-0.746-1.582-1.138c-0.184-0.139-0.367-0.277-0.545-0.419c-0.629-0.494-1.246-1.001-1.842-1.537
				l18.941,17.001c0.465,0.418,0.941,0.824,1.426,1.217c0.137,0.11,0.279,0.212,0.416,0.319c0.18,0.142,0.361,0.281,0.545,0.419
				c0.518,0.393,1.043,0.772,1.582,1.136c0.145,0.099,0.285,0.203,0.43,0.298c0.061,0.04,0.115,0.082,0.174,0.12
				c0.623,0.406,1.258,0.79,1.906,1.16c0.162,0.093,0.328,0.178,0.492,0.268c0.377,0.21,0.754,0.423,1.139,0.619
				c0.18,0.092,0.365,0.171,0.547,0.26c0.266,0.131,0.535,0.257,0.805,0.383c0.521,0.242,1.051,0.472,1.586,0.691
				c0.262,0.107,0.52,0.219,0.783,0.321c0.119,0.045,0.234,0.099,0.354,0.143c0.41,0.155,0.834,0.286,1.25,0.426
				c0.316,0.11,0.629,0.225,0.953,0.327c0.629,0.197,1.271,0.371,1.914,0.54c0.236,0.061,0.463,0.133,0.699,0.19
				c0.027,0.007,0.051,0.016,0.08,0.022c0.205,0.05,0.422,0.081,0.629,0.128c0.764,0.174,1.533,0.337,2.314,0.472
				c0.375,0.064,0.754,0.107,1.129,0.162c0.66,0.097,1.32,0.188,1.99,0.256c0.137,0.013,0.271,0.039,0.412,0.053
				c0.469,0.044,0.945,0.064,1.422,0.094c0.283,0.018,0.566,0.043,0.852,0.056c0.938,0.042,1.877,0.06,2.832,0.05
				c0.102-0.001,0.205-0.009,0.305-0.01c0.857-0.017,1.721-0.053,2.592-0.112c0.324-0.021,0.65-0.057,0.975-0.084
				c0.66-0.056,1.324-0.122,1.992-0.204c0.371-0.046,0.742-0.098,1.117-0.152c0.641-0.092,1.287-0.195,1.936-0.311
				c0.373-0.068,0.748-0.133,1.125-0.208c0.693-0.137,1.389-0.293,2.088-0.457c0.328-0.076,0.656-0.146,0.984-0.229
				c1.025-0.26,2.057-0.541,3.096-0.858c1.301-0.397,2.588-0.85,3.865-1.328c0.318-0.119,0.637-0.239,0.953-0.363
				c1.268-0.496,2.525-1.014,3.766-1.581l0.004-0.001c0.012-0.006,0.021-0.01,0.029-0.015c1.053-0.483,2.094-1,3.125-1.534
				c0.33-0.17,0.654-0.35,0.98-0.526c0.721-0.387,1.438-0.784,2.148-1.196c0.178-0.103,0.361-0.195,0.537-0.3
				c0.219-0.13,0.434-0.271,0.65-0.403c0.453-0.272,0.9-0.55,1.348-0.833c0.432-0.271,0.861-0.548,1.287-0.829
				c0.443-0.293,0.881-0.59,1.316-0.891c0.223-0.152,0.451-0.296,0.672-0.453c0.219-0.153,0.432-0.316,0.648-0.474
				c0.344-0.246,0.684-0.493,1.021-0.746c0.463-0.343,0.92-0.693,1.375-1.046c0.328-0.256,0.66-0.512,0.986-0.773
				c0.146-0.118,0.297-0.231,0.445-0.35c0.133-0.108,0.254-0.227,0.387-0.336c1.213-0.999,2.408-2.021,3.566-3.088
				c0.008-0.007,0.018-0.014,0.027-0.022c0.033-0.031,0.063-0.065,0.098-0.097c1.082-1.003,2.133-2.041,3.164-3.099
				c0.125-0.126,0.258-0.243,0.379-0.371c0.082-0.084,0.154-0.177,0.236-0.262c1.01-1.058,1.99-2.139,2.943-3.246
				c0.07-0.079,0.146-0.153,0.215-0.233c0.115-0.134,0.217-0.276,0.328-0.41c0.939-1.11,1.852-2.238,2.729-3.391
				c0.047-0.062,0.1-0.12,0.146-0.182c0.016-0.018,0.027-0.037,0.039-0.055c0.949-1.258,1.854-2.544,2.729-3.847
				c0.094-0.138,0.199-0.271,0.291-0.41c0.107-0.162,0.207-0.329,0.313-0.491c0.232-0.357,0.461-0.719,0.689-1.08
				c0.301-0.475,0.596-0.952,0.887-1.432c0.225-0.369,0.443-0.74,0.658-1.111c0.137-0.233,0.281-0.464,0.414-0.698
				c0.127-0.221,0.24-0.448,0.365-0.67c0.264-0.473,0.521-0.949,0.775-1.426c0.23-0.437,0.459-0.875,0.684-1.316
				c0.242-0.482,0.48-0.966,0.717-1.45c0.117-0.242,0.244-0.481,0.357-0.726c0.078-0.166,0.145-0.338,0.225-0.507
				c0.346-0.748,0.674-1.503,0.992-2.259c0.131-0.31,0.27-0.62,0.396-0.934c0.434-1.061,0.842-2.128,1.221-3.2
				c0.008-0.019,0.018-0.037,0.021-0.055c0.17-0.48,0.32-0.962,0.477-1.443c0.146-0.443,0.301-0.881,0.439-1.324
				C1125.745,331.189,1125.884,330.677,1126.026,330.165z"/>
			<linearGradient id="SVGID_31_" gradientUnits="userSpaceOnUse" x1="965.978" y1="312.5989" x2="1138.4209" y2="312.5989">
				<stop  offset="0" style="stop-color:#FFEA00"/>
				<stop  offset="0.9895" style="stop-color:#D500F9"/>
			</linearGradient>
			<path fill="url(#SVGID_31_)" d="M1077.698,241.226c0.232-0.05,0.469-0.096,0.703-0.143c1.26-0.257,2.514-0.496,3.758-0.696
				c0.035-0.004,0.066-0.008,0.1-0.014c1.229-0.195,2.447-0.355,3.656-0.495c0.219-0.026,0.441-0.055,0.658-0.079
				c1.186-0.127,2.365-0.229,3.533-0.305c0.232-0.016,0.461-0.027,0.689-0.04c1.201-0.068,2.393-0.117,3.574-0.131
				c0.059-0.001,0.113,0,0.17,0c1.15-0.012,2.289,0.008,3.42,0.047c0.205,0.007,0.41,0.012,0.613,0.021
				c1.123,0.049,2.238,0.122,3.344,0.22c0.297,0.026,0.592,0.055,0.891,0.086c0.479,0.047,0.955,0.1,1.432,0.157
				c0.334,0.041,0.666,0.084,1,0.128c0.475,0.064,0.945,0.133,1.418,0.208c0.322,0.051,0.646,0.102,0.969,0.157
				c0.484,0.082,0.965,0.174,1.443,0.265c0.301,0.059,0.604,0.113,0.9,0.175c0.531,0.109,1.057,0.231,1.584,0.353
				c0.229,0.052,0.457,0.103,0.686,0.157c1.16,0.282,2.303,0.6,3.434,0.942c0.166,0.051,0.334,0.099,0.502,0.151
				c1.094,0.339,2.168,0.708,3.227,1.102c0.195,0.072,0.391,0.145,0.584,0.218c0.943,0.361,1.875,0.737,2.791,1.14
				c0.117,0.052,0.229,0.107,0.346,0.158c0.846,0.379,1.682,0.778,2.506,1.192c0.166,0.083,0.338,0.165,0.506,0.251
				c0.816,0.422,1.623,0.861,2.42,1.316c0.166,0.098,0.332,0.199,0.502,0.297c0.674,0.398,1.342,0.808,1.996,1.229
				c0.172,0.11,0.344,0.216,0.512,0.327c0.736,0.484,1.461,0.983,2.176,1.501c0.143,0.104,0.279,0.212,0.424,0.317
				c0.588,0.436,1.166,0.881,1.738,1.338c0.188,0.15,0.377,0.298,0.563,0.45c0.662,0.543,1.314,1.095,1.949,1.666
				c0.004,0.001,0.006,0.004,0.008,0.006l-0.002-0.002c0.002,0.001,0.002,0.001,0.002,0.002l-18.939-17.002
				c-0.643-0.574-1.297-1.126-1.961-1.672c-0.078-0.064-0.152-0.134-0.234-0.198c-0.104-0.086-0.217-0.165-0.324-0.251
				c-0.57-0.457-1.15-0.902-1.74-1.338c-0.143-0.105-0.283-0.214-0.426-0.319c-0.713-0.516-1.439-1.015-2.176-1.499
				c-0.057-0.038-0.113-0.08-0.17-0.118c-0.111-0.073-0.227-0.136-0.336-0.207c-0.658-0.423-1.324-0.834-2.002-1.23
				c-0.166-0.099-0.334-0.2-0.502-0.296c-0.795-0.458-1.602-0.897-2.42-1.317c-0.063-0.031-0.119-0.066-0.18-0.098
				c-0.104-0.054-0.217-0.1-0.324-0.153c-0.822-0.416-1.66-0.815-2.51-1.195c-0.113-0.05-0.227-0.104-0.34-0.155
				c-0.916-0.402-1.85-0.779-2.789-1.14c-0.104-0.039-0.199-0.085-0.301-0.123c-0.096-0.036-0.193-0.063-0.289-0.098
				c-1.059-0.393-2.131-0.762-3.223-1.102c-0.168-0.053-0.338-0.102-0.506-0.151c-1.129-0.342-2.27-0.66-3.43-0.942
				c-0.027-0.006-0.053-0.016-0.08-0.023c-0.205-0.049-0.414-0.089-0.619-0.137c-0.521-0.122-1.045-0.242-1.572-0.35
				c-0.299-0.062-0.6-0.118-0.9-0.175c-0.479-0.093-0.959-0.183-1.443-0.267c-0.322-0.055-0.646-0.105-0.971-0.155
				c-0.469-0.074-0.941-0.144-1.416-0.209c-0.332-0.045-0.666-0.087-1-0.128c-0.477-0.057-0.955-0.11-1.436-0.159
				c-0.197-0.019-0.396-0.047-0.596-0.066c-0.096-0.008-0.195-0.011-0.291-0.019c-1.105-0.098-2.219-0.173-3.346-0.22
				c-0.203-0.01-0.408-0.013-0.609-0.02c-1.133-0.039-2.271-0.058-3.422-0.047c-0.057,0.001-0.111-0.001-0.168-0.001
				c-1.182,0.015-2.375,0.064-3.576,0.132c-0.229,0.013-0.459,0.025-0.688,0.04c-1.17,0.076-2.346,0.178-3.533,0.307
				c-0.221,0.024-0.443,0.051-0.664,0.076c-1.209,0.141-2.424,0.302-3.65,0.498c-0.035,0.005-0.068,0.009-0.102,0.015
				c-1.242,0.199-2.496,0.436-3.756,0.693c-0.236,0.048-0.471,0.095-0.709,0.145c-1.221,0.258-2.447,0.544-3.68,0.857
				c-0.234,0.06-0.471,0.124-0.705,0.185c-1.285,0.337-2.576,0.694-3.871,1.091c-1.352,0.413-2.691,0.863-4.025,1.332
				c-0.393,0.138-0.783,0.283-1.178,0.428c-0.982,0.358-1.965,0.732-2.938,1.122c-0.389,0.154-0.777,0.305-1.164,0.464
				c-1.299,0.536-2.594,1.091-3.875,1.677c-0.006,0.003-0.014,0.007-0.021,0.009c-0.002,0.001-0.006,0.002-0.01,0.005
				c-0.021,0.009-0.039,0.02-0.061,0.03c-1.613,0.742-3.209,1.533-4.791,2.352c-0.504,0.261-1.002,0.538-1.502,0.807
				c-1.113,0.596-2.215,1.208-3.309,1.841c-0.273,0.16-0.557,0.303-0.83,0.462c-0.334,0.199-0.662,0.414-0.994,0.616
				c-0.695,0.421-1.389,0.849-2.078,1.285c-0.662,0.419-1.318,0.842-1.971,1.274c-0.682,0.449-1.359,0.906-2.033,1.371
				c-0.342,0.236-0.693,0.458-1.033,0.698c-0.334,0.236-0.66,0.486-0.994,0.726c-0.525,0.378-1.049,0.761-1.57,1.149
				c-0.711,0.526-1.414,1.063-2.111,1.605c-0.508,0.394-1.018,0.789-1.519,1.191c-0.229,0.184-0.465,0.357-0.691,0.542
				c-0.525,0.427-1.037,0.873-1.559,1.309c-0.387,0.325-0.779,0.645-1.16,0.975c-0.955,0.82-1.896,1.656-2.828,2.504
				c-0.166,0.153-0.34,0.301-0.51,0.456c-0.021,0.019-0.043,0.038-0.064,0.058c-1.057,0.975-2.096,1.974-3.123,2.983
				c-0.307,0.303-0.607,0.615-0.912,0.919c-0.521,0.526-1.053,1.047-1.566,1.582c-0.213,0.22-0.414,0.448-0.625,0.669
				c-0.356,0.376-0.709,0.757-1.061,1.137c-0.67,0.721-1.33,1.449-1.98,2.185c-0.34,0.382-0.682,0.765-1.014,1.151
				c-0.18,0.205-0.363,0.405-0.539,0.611c-0.521,0.609-1.027,1.232-1.537,1.851c-0.256,0.312-0.518,0.619-0.773,0.933
				c-0.889,1.102-1.766,2.211-2.617,3.338c-0.031,0.04-0.06,0.083-0.088,0.124c-0.195,0.255-0.379,0.518-0.57,0.776
				c-0.695,0.934-1.381,1.872-2.049,2.823c-0.301,0.429-0.592,0.864-0.891,1.295c-0.365,0.538-0.744,1.072-1.105,1.615
				c-0.164,0.244-0.313,0.495-0.473,0.741c-0.363,0.552-0.715,1.11-1.068,1.667c-0.459,0.729-0.914,1.461-1.359,2.199
				c-0.342,0.567-0.678,1.137-1.012,1.71c-0.213,0.362-0.434,0.717-0.641,1.082c-0.193,0.338-0.369,0.684-0.559,1.022
				c-0.404,0.728-0.803,1.46-1.193,2.196c-0.356,0.669-0.707,1.341-1.047,2.018c-0.377,0.741-0.744,1.484-1.104,2.23
				c-0.18,0.375-0.379,0.747-0.555,1.123c-0.121,0.257-0.225,0.521-0.344,0.779c-0.531,1.152-1.035,2.311-1.527,3.474
				c-0.201,0.478-0.412,0.953-0.607,1.433c-0.666,1.632-1.297,3.271-1.881,4.921c-0.01,0.03-0.023,0.06-0.033,0.091
				c-0.26,0.736-0.488,1.477-0.73,2.217c-0.225,0.674-0.459,1.348-0.67,2.026c-0.242,0.787-0.453,1.579-0.676,2.369
				c-0.191,0.67-0.396,1.337-0.572,2.009c-0.205,0.79-0.379,1.582-0.566,2.374c-0.16,0.676-0.338,1.352-0.484,2.03
				c-0.168,0.792-0.307,1.586-0.457,2.379c-0.129,0.68-0.275,1.359-0.391,2.039c-0.141,0.833-0.244,1.668-0.361,2.501
				c-0.09,0.642-0.201,1.283-0.279,1.926c-0.109,0.91-0.182,1.818-0.264,2.728c-0.051,0.567-0.121,1.135-0.162,1.702
				c-0.074,1.009-0.106,2.016-0.143,3.025c-0.02,0.467-0.059,0.936-0.066,1.403c-0.035,1.475-0.029,2.947,0.014,4.416
				c0.58,20.086,8.191,36.414,20.441,47.41l18.939,17.001c-12.25-10.995-19.859-27.324-20.441-47.409
				c-0.041-1.47-0.047-2.943-0.014-4.417c0.012-0.488,0.051-0.978,0.07-1.466c0.037-0.986,0.068-1.973,0.139-2.96
				c0.043-0.607,0.119-1.216,0.178-1.825c0.078-0.868,0.146-1.736,0.252-2.605c0.078-0.659,0.191-1.317,0.283-1.975
				c0.117-0.818,0.219-1.637,0.355-2.454c0.113-0.679,0.262-1.355,0.391-2.032c0.15-0.795,0.287-1.593,0.457-2.387
				c0.148-0.684,0.326-1.362,0.488-2.045c0.186-0.786,0.357-1.573,0.563-2.358c0.178-0.677,0.385-1.352,0.576-2.027
				c0.221-0.785,0.432-1.571,0.672-2.352c0.207-0.676,0.445-1.347,0.666-2.02c0.256-0.771,0.496-1.545,0.768-2.315
				c0.584-1.648,1.215-3.288,1.879-4.92c0.195-0.48,0.408-0.956,0.609-1.434c0.492-1.164,0.998-2.322,1.529-3.474
				c0.291-0.636,0.592-1.268,0.896-1.899c0.359-0.747,0.727-1.49,1.102-2.231c0.344-0.676,0.693-1.348,1.049-2.019
				c0.391-0.736,0.791-1.468,1.195-2.2c0.391-0.701,0.789-1.4,1.193-2.096c0.334-0.574,0.672-1.146,1.016-1.715
				c0.445-0.738,0.902-1.469,1.361-2.198c0.353-0.557,0.703-1.112,1.063-1.665c0.52-0.792,1.051-1.577,1.586-2.36
				c0.297-0.43,0.584-0.863,0.887-1.291c0.668-0.948,1.352-1.886,2.043-2.82c0.193-0.26,0.379-0.524,0.574-0.781
				c0.883-1.168,1.787-2.321,2.709-3.461c0.252-0.313,0.517-0.621,0.771-0.932c0.684-0.829,1.371-1.65,2.074-2.462
				c0.336-0.387,0.678-0.77,1.016-1.153c0.65-0.734,1.309-1.463,1.977-2.183c0.356-0.381,0.707-0.764,1.067-1.14
				c0.717-0.758,1.449-1.503,2.188-2.244c0.305-0.309,0.607-0.621,0.916-0.926c1.047-1.031,2.109-2.047,3.188-3.042
				c0.164-0.151,0.334-0.295,0.498-0.446c0.934-0.851,1.879-1.691,2.836-2.514c0.385-0.329,0.775-0.649,1.16-0.973
				c0.746-0.625,1.494-1.245,2.254-1.853c0.502-0.4,1.008-0.795,1.514-1.189c0.701-0.543,1.404-1.079,2.113-1.608
				c0.521-0.387,1.047-0.77,1.574-1.149c0.67-0.481,1.346-0.954,2.025-1.42c0.674-0.465,1.35-0.922,2.031-1.372
				c0.652-0.431,1.311-0.855,1.973-1.272c0.688-0.436,1.381-0.866,2.08-1.286c0.604-0.366,1.211-0.722,1.82-1.077
				c1.094-0.634,2.201-1.247,3.314-1.846c0.5-0.267,0.996-0.543,1.498-0.803c1.586-0.821,3.184-1.616,4.805-2.359
				c0.018-0.008,0.037-0.019,0.055-0.027c0.012-0.005,0.023-0.01,0.035-0.016c1.277-0.585,2.564-1.137,3.861-1.671
				c0.389-0.16,0.779-0.312,1.17-0.468c0.971-0.387,1.947-0.76,2.93-1.118c0.395-0.144,0.787-0.291,1.186-0.429
				c1.332-0.469,2.67-0.919,4.02-1.332c1.297-0.396,2.588-0.752,3.871-1.091c0.236-0.061,0.473-0.124,0.705-0.183
				C1075.247,241.771,1076.476,241.485,1077.698,241.226z"/>
			<g>
				<linearGradient id="SVGID_32_" gradientUnits="userSpaceOnUse" x1="1018.5671" y1="275.5468" x2="1125.2523" y2="382.232">
					<stop  offset="0" style="stop-color:#FFFF8D"/>
					<stop  offset="0.9895" style="stop-color:#E040FB"/>
				</linearGradient>
				<path fill="url(#SVGID_32_)" d="M1069.437,243.36c47.941-14.657,88.061,11.786,89.426,58.94
					c1.365,47.165-36.533,97.461-84.473,112.117c-47.949,14.66-88.07-11.783-89.436-58.946
					C983.591,308.315,1021.487,258.021,1069.437,243.36z M1073.524,384.509c31.182-9.533,55.82-42.242,54.932-72.914
					c-0.887-30.661-26.971-47.862-58.152-38.329c-31.184,9.534-55.83,42.245-54.943,72.907
					C1016.247,376.845,1042.341,394.043,1073.524,384.509"/>
			</g>
		</g>
	</g>
	<g>
		<g enable-background="new    ">
			<g>
				
					<linearGradient id="SVGID_33_" gradientUnits="userSpaceOnUse" x1="125.5701" y1="756.5657" x2="227.6753" y2="756.5657" gradientTransform="matrix(0.9995 -0.0324 0.0324 0.9995 -23.364 -40.5928)">
					<stop  offset="0" style="stop-color:#FF80AB"/>
					<stop  offset="0.9895" style="stop-color:#40C4FF"/>
				</linearGradient>
				<polygon fill="url(#SVGID_33_)" points="125.798,685.052 152.738,668.205 229.568,734.693 202.628,751.539 				"/>
			</g>
			<g>
				
					<linearGradient id="SVGID_34_" gradientUnits="userSpaceOnUse" x1="150.6521" y1="730.0781" x2="150.6521" y2="641.2293" gradientTransform="matrix(0.9995 -0.0324 0.0324 0.9995 -23.364 -40.5928)">
					<stop  offset="0" style="stop-color:#FF4081"/>
					<stop  offset="0.9895" style="stop-color:#00B0FF"/>
				</linearGradient>
				<polygon fill="url(#SVGID_34_)" points="146.12,611.469 173.058,594.622 152.738,668.205 125.798,685.052 				"/>
			</g>
			<g>
				
					<linearGradient id="SVGID_35_" gradientUnits="userSpaceOnUse" x1="216.6436" y1="776.4135" x2="281.1825" y2="776.4135" gradientTransform="matrix(0.9995 -0.0324 0.0324 0.9995 -23.364 -40.5928)">
					<stop  offset="0" style="stop-color:#FF4081"/>
					<stop  offset="0.9895" style="stop-color:#00B0FF"/>
				</linearGradient>
				<polygon fill="url(#SVGID_35_)" points="253.707,675.713 280.647,658.866 247.454,779.023 220.514,795.869 				"/>
			</g>
			<g>
				
					<linearGradient id="SVGID_36_" gradientUnits="userSpaceOnUse" x1="131.8346" y1="660.6194" x2="281.1825" y2="660.6194" gradientTransform="matrix(0.9995 -0.0324 0.0324 0.9995 -23.364 -40.5928)">
					<stop  offset="0" style="stop-color:#FF80AB"/>
					<stop  offset="0.9895" style="stop-color:#40C4FF"/>
				</linearGradient>
				<polygon fill="url(#SVGID_36_)" points="128.244,567.145 155.183,550.298 280.647,658.866 253.707,675.713 				"/>
			</g>
			<g>
				
					<linearGradient id="SVGID_37_" gradientUnits="userSpaceOnUse" x1="94.7661" y1="728.1091" x2="253.7115" y2="728.1091" gradientTransform="matrix(0.9995 -0.0324 0.0324 0.9995 -23.364 -40.5928)">
					<stop  offset="0" style="stop-color:#FF4081"/>
					<stop  offset="0.9895" style="stop-color:#00B0FF"/>
				</linearGradient>
				<path fill="url(#SVGID_37_)" d="M128.244,567.145l125.463,108.568l-33.193,120.156L95.05,687.3L128.244,567.145z
					 M202.628,751.539l20.331-73.577l-76.839-66.493l-20.322,73.583L202.628,751.539"/>
			</g>
		</g>
	</g>
	<g>
		<g enable-background="new    ">
			<g>
				<linearGradient id="SVGID_38_" gradientUnits="userSpaceOnUse" x1="1062.3447" y1="794.1548" x2="1166.9395" y2="794.1548">
					<stop  offset="0" style="stop-color:#FFEA00"/>
					<stop  offset="0.9895" style="stop-color:#00B0FF"/>
				</linearGradient>
				<polygon fill="url(#SVGID_38_)" points="1081.111,831.144 1062.345,831.395 1148.173,757.166 1166.939,756.915 				"/>
			</g>
			<g>
				<linearGradient id="SVGID_39_" gradientUnits="userSpaceOnUse" x1="1048.9668" y1="732.8272" x2="1166.9395" y2="732.8272">
					<stop  offset="0" style="stop-color:#FFEA00"/>
					<stop  offset="0.9895" style="stop-color:#00B0FF"/>
				</linearGradient>
				<polygon fill="url(#SVGID_39_)" points="1166.939,756.915 1148.173,757.166 1048.967,708.742 1067.733,708.488 				"/>
			</g>
			<g>
				<linearGradient id="SVGID_40_" gradientUnits="userSpaceOnUse" x1="1045.894" y1="872.128" x2="1045.894" y2="673.084">
					<stop  offset="0.0105" style="stop-color:#00B0FF"/>
					<stop  offset="1" style="stop-color:#FFEA00"/>
				</linearGradient>
				<polygon fill="url(#SVGID_40_)" points="1066.121,871.874 1047.353,872.128 1025.667,673.338 1044.436,673.084 				"/>
			</g>
			<g>
				<linearGradient id="SVGID_41_" gradientUnits="userSpaceOnUse" x1="1020.7358" y1="696.7838" x2="1140.375" y2="816.4229">
					<stop  offset="0" style="stop-color:#FFFF8D"/>
					<stop  offset="0.9895" style="stop-color:#40C4FF"/>
				</linearGradient>
				<path fill="url(#SVGID_41_)" d="M1044.436,673.084l160.792,78.486l-139.106,120.304L1044.436,673.084z M1067.733,708.488
					l13.378,122.655l85.828-74.229L1067.733,708.488"/>
			</g>
		</g>
	</g>
	<g>
		<g enable-background="new    ">
			<linearGradient id="SVGID_42_" gradientUnits="userSpaceOnUse" x1="117.7044" y1="342.7094" x2="272.0112" y2="342.7094">
				<stop  offset="0" style="stop-color:#40C4FF"/>
				<stop  offset="0.9895" style="stop-color:#69F0AE"/>
			</linearGradient>
			<path fill="url(#SVGID_42_)" d="M214.786,394.675c0.078-0.764,0.148-1.529,0.276-2.293c0.072-0.428,0.187-0.855,0.276-1.283
				c0.138-0.672,0.258-1.348,0.434-2.019c0.127-0.487,0.298-0.968,0.444-1.453c0.184-0.604,0.347-1.212,0.561-1.81
				c0.436-1.234,0.945-2.454,1.501-3.659c0.222-0.486,0.472-0.965,0.713-1.443c0.286-0.565,0.565-1.131,0.875-1.685
				c0.324-0.582,0.673-1.153,1.021-1.722c0.237-0.385,0.463-0.774,0.71-1.153c0.517-0.791,1.062-1.568,1.626-2.328
				c0.093-0.126,0.174-0.256,0.268-0.38c0.661-0.873,1.355-1.722,2.073-2.553c0.207-0.241,0.429-0.469,0.64-0.705
				c0.522-0.582,1.057-1.155,1.607-1.712c0.278-0.278,0.561-0.553,0.846-0.827c0.517-0.497,1.047-0.982,1.585-1.457
				c0.313-0.274,0.626-0.553,0.947-0.819c0.532-0.445,1.079-0.868,1.629-1.287c0.363-0.278,0.723-0.563,1.094-0.831
				c0.479-0.344,0.975-0.66,1.465-0.986c0.515-0.341,1.029-0.686,1.557-1.004c0.372-0.227,0.76-0.427,1.138-0.642
				c0.831-0.467,1.668-0.912,2.523-1.32c0.572-0.274,1.144-0.545,1.726-0.789c0.289-0.124,0.576-0.25,0.869-0.367
				c0.985-0.391,1.984-0.756,2.995-1.064c1.198-0.367,2.379-0.65,3.548-0.882c0.377-0.074,0.745-0.119,1.117-0.18
				c0.789-0.128,1.575-0.241,2.347-0.31c0.421-0.038,0.834-0.059,1.249-0.077c0.717-0.035,1.424-0.046,2.124-0.03
				c0.406,0.009,0.814,0.022,1.213,0.048c0.941,0.063,1.873,0.152,2.772,0.308c0.104,0.019,0.204,0.043,0.309,0.064
				c0.769,0.141,1.509,0.341,2.245,0.548c0.426,0.123,0.85,0.247,1.265,0.389c0.631,0.218,1.245,0.464,1.847,0.729
				c0.275,0.12,0.557,0.232,0.826,0.365c0.844,0.414,1.66,0.868,2.435,1.379c0.108,0.075,0.208,0.158,0.318,0.232
				c0.769,0.53,1.519,1.091,2.211,1.715l-96.873-86.947c-0.267-0.241-0.54-0.473-0.817-0.697c-0.446-0.364-0.919-0.692-1.394-1.016
				c-0.107-0.075-0.208-0.16-0.316-0.233c-0.033-0.021-0.062-0.046-0.095-0.067c-0.651-0.426-1.33-0.818-2.028-1.176
				c-0.102-0.052-0.211-0.089-0.314-0.137c-0.268-0.134-0.55-0.243-0.825-0.366c-0.4-0.175-0.788-0.374-1.201-0.53
				c-0.207-0.078-0.434-0.124-0.645-0.198c-0.415-0.143-0.837-0.267-1.266-0.389c-0.304-0.085-0.591-0.201-0.901-0.276
				c-0.439-0.106-0.891-0.191-1.344-0.272c-0.103-0.021-0.202-0.045-0.307-0.063c-0.679-0.119-1.366-0.215-2.068-0.28
				c-0.23-0.021-0.472-0.013-0.703-0.028c-0.401-0.026-0.807-0.039-1.214-0.048c-0.699-0.017-1.408-0.006-2.123,0.029
				c-0.417,0.02-0.83,0.041-1.252,0.078c-0.77,0.068-1.555,0.182-2.345,0.311c-0.374,0.06-0.741,0.104-1.118,0.178
				c-1.169,0.233-2.348,0.516-3.547,0.883c-1.013,0.308-2.01,0.675-2.996,1.065c-0.291,0.115-0.578,0.241-0.867,0.366
				c-0.365,0.152-0.734,0.293-1.094,0.457c-0.217,0.099-0.419,0.228-0.634,0.332c-0.855,0.41-1.693,0.853-2.52,1.319
				c-0.255,0.143-0.524,0.256-0.777,0.407c-0.124,0.072-0.241,0.161-0.365,0.235c-0.528,0.319-1.042,0.666-1.558,1.007
				c-0.367,0.243-0.751,0.465-1.112,0.719c-0.119,0.083-0.232,0.18-0.35,0.265c-0.373,0.267-0.734,0.552-1.1,0.832
				c-0.374,0.286-0.757,0.554-1.125,0.852c-0.171,0.138-0.33,0.29-0.499,0.433c-0.321,0.268-0.636,0.545-0.951,0.823
				c-0.276,0.245-0.566,0.475-0.836,0.723c-0.256,0.238-0.496,0.489-0.746,0.73c-0.285,0.274-0.569,0.548-0.845,0.829
				c-0.165,0.165-0.339,0.321-0.501,0.489c-0.382,0.397-0.741,0.814-1.108,1.221c-0.211,0.236-0.43,0.464-0.638,0.705
				c-0.067,0.074-0.137,0.145-0.202,0.222c-0.636,0.743-1.249,1.505-1.839,2.284c-0.01,0.015-0.022,0.032-0.032,0.049
				c-0.095,0.122-0.177,0.251-0.269,0.377c-0.499,0.675-0.992,1.354-1.454,2.048c-0.059,0.091-0.111,0.188-0.171,0.281
				c-0.248,0.378-0.474,0.767-0.71,1.15c-0.272,0.443-0.562,0.881-0.819,1.33c-0.072,0.13-0.131,0.265-0.204,0.395
				c-0.31,0.556-0.591,1.121-0.874,1.689c-0.191,0.376-0.407,0.745-0.585,1.125c-0.05,0.102-0.081,0.21-0.13,0.313
				c-0.554,1.205-1.066,2.423-1.501,3.659c-0.003,0.008-0.007,0.015-0.011,0.022c-0.208,0.593-0.367,1.19-0.546,1.787
				c-0.146,0.486-0.319,0.966-0.447,1.454c-0.168,0.643-0.284,1.29-0.418,1.939c-0.094,0.454-0.215,0.908-0.292,1.364
				c-0.117,0.693-0.176,1.39-0.252,2.087c-0.043,0.412-0.117,0.822-0.147,1.233c-0.079,1.106-0.106,2.212-0.074,3.313
				c0.218,7.53,3.062,13.642,7.641,17.751l96.873,86.947c-4.582-4.109-7.422-10.221-7.641-17.751
				c-0.032-1.101-0.008-2.208,0.072-3.315C214.688,395.361,214.751,395.018,214.786,394.675z"/>
			<g>
				<linearGradient id="SVGID_43_" gradientUnits="userSpaceOnUse" x1="227.157" y1="369.1117" x2="267.0802" y2="409.0349">
					<stop  offset="0" style="stop-color:#00B0FF"/>
					<stop  offset="0.9895" style="stop-color:#69F0AE"/>
				</linearGradient>
				<path fill="url(#SVGID_43_)" d="M246.186,357.085c17.975-5.496,32.955,4.378,33.465,22.04
					c0.512,17.678-13.639,36.441-31.612,41.938c-17.957,5.489-32.938-4.368-33.449-22.047
					C214.078,381.354,228.229,362.574,246.186,357.085z"/>
			</g>
		</g>
	</g>
</g>
</svg>
