<?xml version="1.0" encoding="utf-8"?>
<!-- Generator: Adobe Illustrator 17.0.0, SVG Export Plug-In . SVG Version: 6.00 Build 0)  -->
<!DOCTYPE svg PUBLIC "-//W3C//DTD SVG 1.1//EN" "http://www.w3.org/Graphics/SVG/1.1/DTD/svg11.dtd">
<svg version="1.1" id="Layer_1" xmlns="http://www.w3.org/2000/svg" xmlns:xlink="http://www.w3.org/1999/xlink" x="0px" y="0px"
	 width="1280px" height="800px" viewBox="0 0 1280 800" enable-background="new 0 0 1280 800" xml:space="preserve">
<pattern  x="0.5" y="800.5" width="348" height="348" patternUnits="userSpaceOnUse" id="Memphis_Pattern_1" viewBox="0 -348 348 348" overflow="visible">
	<g>
		<polygon fill="none" points="0,0 348,0 348,-348 0,-348 		"/>
		<g>
			<polygon fill="none" points="0,0 348,0 348,-348 0,-348 			"/>
			
				<line fill="none" stroke="#F7F7F7" stroke-linecap="round" stroke-miterlimit="10" x1="49.798" y1="-73.643" x2="36.687" y2="-85.784"/>
			
				<line fill="none" stroke="#F7F7F7" stroke-linecap="round" stroke-miterlimit="10" x1="347.5" y1="-39.539" x2="337.572" y2="-43.769"/>
			
				<line fill="none" stroke="#F7F7F7" stroke-linecap="round" stroke-miterlimit="10" x1="7.011" y1="-36.764" x2="0.5" y2="-39.539"/>
			
				<line fill="none" stroke="#F7F7F7" stroke-linecap="round" stroke-miterlimit="10" x1="166.921" y1="-183.192" x2="153.81" y2="-195.333"/>
			
				<line fill="none" stroke="#F7F7F7" stroke-linecap="round" stroke-miterlimit="10" x1="156.835" y1="-156.308" x2="144.812" y2="-143.088"/>
			
				<line fill="none" stroke="#F7F7F7" stroke-linecap="round" stroke-miterlimit="10" x1="299.619" y1="-193.305" x2="302.404" y2="-210.956"/>
			
				<line fill="none" stroke="#F7F7F7" stroke-linecap="round" stroke-miterlimit="10" x1="314.454" y1="-77.037" x2="298.015" y2="-84.042"/>
			
				<line fill="none" stroke="#F7F7F7" stroke-linecap="round" stroke-miterlimit="10" x1="347.5" y1="-130.004" x2="335.931" y2="-134.934"/>
			
				<line fill="none" stroke="#F7F7F7" stroke-linecap="round" stroke-miterlimit="10" x1="5.37" y1="-127.929" x2="0.5" y2="-130.004"/>
			
				<line fill="none" stroke="#F7F7F7" stroke-linecap="round" stroke-miterlimit="10" x1="283.691" y1="-111.336" x2="270.58" y2="-123.478"/>
			
				<line fill="none" stroke="#F7F7F7" stroke-linecap="round" stroke-miterlimit="10" x1="271.877" y1="-90.174" x2="259.855" y2="-76.954"/>
			
				<line fill="none" stroke="#F7F7F7" stroke-linecap="round" stroke-miterlimit="10" x1="308.044" y1="-347.5" x2="302.033" y2="-340.89"/>
			
				<line fill="none" stroke="#F7F7F7" stroke-linecap="round" stroke-miterlimit="10" x1="314.056" y1="-7.11" x2="308.044" y2="-0.5"/>
			
				<line fill="none" stroke="#F7F7F7" stroke-linecap="round" stroke-miterlimit="10" x1="54.185" y1="-308.498" x2="50.85" y2="-326.053"/>
			
				<line fill="none" stroke="#F7F7F7" stroke-linecap="round" stroke-miterlimit="10" x1="81.253" y1="-339.578" x2="68.033" y2="-327.555"/>
			
				<line fill="none" stroke="#F7F7F7" stroke-linecap="round" stroke-miterlimit="10" x1="161.538" y1="-15.198" x2="158.204" y2="-32.753"/>
			
				<line fill="none" stroke="#F7F7F7" stroke-linecap="round" stroke-miterlimit="10" x1="200.682" y1="-207.203" x2="197.348" y2="-224.759"/>
			
				<line fill="none" stroke="#F7F7F7" stroke-linecap="round" stroke-miterlimit="10" x1="257.232" y1="-0.5" x2="258.624" y2="-9.326"/>
			
				<line fill="none" stroke="#F7F7F7" stroke-linecap="round" stroke-miterlimit="10" x1="255.839" y1="-338.675" x2="257.232" y2="-347.5"/>
			
				<line fill="none" stroke="#F7F7F7" stroke-linecap="round" stroke-miterlimit="10" x1="227.75" y1="-238.284" x2="214.531" y2="-226.26"/>
			
				<line fill="none" stroke="#F7F7F7" stroke-linecap="round" stroke-miterlimit="10" x1="347.5" y1="-335.982" x2="340.89" y2="-329.97"/>
			
				<line fill="none" stroke="#F7F7F7" stroke-linecap="round" stroke-miterlimit="10" x1="7.11" y1="-341.994" x2="0.5" y2="-335.982"/>
			
				<line fill="none" stroke="#F7F7F7" stroke-linecap="round" stroke-miterlimit="10" x1="168.667" y1="-330.611" x2="183.756" y2="-340.183"/>
			
				<line fill="none" stroke="#F7F7F7" stroke-linecap="round" stroke-miterlimit="10" x1="211.526" y1="-171.816" x2="228.96" y2="-175.736"/>
			
				<line fill="none" stroke="#F7F7F7" stroke-linecap="round" stroke-miterlimit="10" x1="185.988" y1="-105.337" x2="201.077" y2="-114.909"/>
			
				<line fill="none" stroke="#F7F7F7" stroke-linecap="round" stroke-miterlimit="10" x1="41.604" y1="-0.5" x2="49.148" y2="-5.286"/>
			
				<line fill="none" stroke="#F7F7F7" stroke-linecap="round" stroke-miterlimit="10" x1="34.06" y1="-342.714" x2="41.604" y2="-347.5"/>
			
				<line fill="none" stroke="#F7F7F7" stroke-linecap="round" stroke-miterlimit="10" x1="0.5" y1="-93.892" x2="4.489" y2="-96.422"/>
			
				<line fill="none" stroke="#F7F7F7" stroke-linecap="round" stroke-miterlimit="10" x1="336.4" y1="-86.85" x2="347.5" y2="-93.892"/>
			
				<line fill="none" stroke="#F7F7F7" stroke-linecap="round" stroke-miterlimit="10" x1="160.888" y1="-68.857" x2="175.977" y2="-78.429"/>
			
				<line fill="none" stroke="#F7F7F7" stroke-linecap="round" stroke-miterlimit="10" x1="224.859" y1="-91.636" x2="208.809" y2="-99.491"/>
			
				<line fill="none" stroke="#F7F7F7" stroke-linecap="round" stroke-miterlimit="10" x1="72.215" y1="-291.365" x2="87.304" y2="-300.938"/>
			
				<line fill="none" stroke="#F7F7F7" stroke-linecap="round" stroke-miterlimit="10" x1="124.607" y1="-305.897" x2="142.041" y2="-309.817"/>
			
				<line fill="none" stroke="#F7F7F7" stroke-linecap="round" stroke-miterlimit="10" x1="123.498" y1="-278.961" x2="107.447" y2="-286.816"/>
			
				<line fill="none" stroke="#F7F7F7" stroke-linecap="round" stroke-miterlimit="10" x1="289.23" y1="-271.481" x2="306.664" y2="-275.401"/>
			
				<line fill="none" stroke="#F7F7F7" stroke-linecap="round" stroke-miterlimit="10" x1="0.5" y1="-288.171" x2="9.217" y2="-290.131"/>
			
				<line fill="none" stroke="#F7F7F7" stroke-linecap="round" stroke-miterlimit="10" x1="338.783" y1="-286.211" x2="347.5" y2="-288.171"/>
			
				<line fill="none" stroke="#F7F7F7" stroke-linecap="round" stroke-miterlimit="10" x1="283.146" y1="-289.086" x2="279.069" y2="-306.485"/>
			
				<line fill="none" stroke="#F7F7F7" stroke-linecap="round" stroke-miterlimit="10" x1="282.406" y1="-251.878" x2="266.356" y2="-259.733"/>
			
				<line fill="none" stroke="#F7F7F7" stroke-linecap="round" stroke-miterlimit="10" x1="61.527" y1="-106.33" x2="57.45" y2="-123.728"/>
			
				<line fill="none" stroke="#F7F7F7" stroke-linecap="round" stroke-miterlimit="10" x1="0.5" y1="-223.504" x2="8.045" y2="-228.29"/>
			
				<line fill="none" stroke="#F7F7F7" stroke-linecap="round" stroke-miterlimit="10" x1="339.955" y1="-218.717" x2="347.5" y2="-223.504"/>
			
				<line fill="none" stroke="#F7F7F7" stroke-linecap="round" stroke-miterlimit="10" x1="324.45" y1="-243.463" x2="339.539" y2="-253.036"/>
			
				<line fill="none" stroke="#F7F7F7" stroke-linecap="round" stroke-miterlimit="10" x1="300.567" y1="-147.077" x2="318.001" y2="-150.997"/>
			
				<line fill="none" stroke="#F7F7F7" stroke-linecap="round" stroke-miterlimit="10" x1="266.983" y1="-174.473" x2="262.906" y2="-191.871"/>
			
				<line fill="none" stroke="#F7F7F7" stroke-linecap="round" stroke-miterlimit="10" x1="276.31" y1="-138.18" x2="260.259" y2="-146.035"/>
			
				<line fill="none" stroke="#F7F7F7" stroke-linecap="round" stroke-miterlimit="10" x1="7.628" y1="-256.161" x2="22.716" y2="-265.733"/>
			
				<line fill="none" stroke="#F7F7F7" stroke-linecap="round" stroke-miterlimit="10" x1="46.498" y1="-242.46" x2="30.448" y2="-250.315"/>
			
				<line fill="none" stroke="#F7F7F7" stroke-linecap="round" stroke-miterlimit="10" x1="322.869" y1="-55.65" x2="337.958" y2="-65.223"/>
			
				<line fill="none" stroke="#F7F7F7" stroke-linecap="round" stroke-miterlimit="10" x1="138.346" y1="-103.996" x2="155.78" y2="-107.916"/>
			
				<line fill="none" stroke="#F7F7F7" stroke-linecap="round" stroke-miterlimit="10" x1="122.196" y1="-120.686" x2="118.119" y2="-138.084"/>
			
				<line fill="none" stroke="#F7F7F7" stroke-linecap="round" stroke-miterlimit="10" x1="106.748" y1="-241.043" x2="110.165" y2="-223.504"/>
			
				<line fill="none" stroke="#F7F7F7" stroke-linecap="round" stroke-miterlimit="10" x1="0.5" y1="-193.406" x2="2.208" y2="-184.636"/>
			
				<line fill="none" stroke="#F7F7F7" stroke-linecap="round" stroke-miterlimit="10" x1="345.791" y1="-202.176" x2="347.5" y2="-193.406"/>
			
				<line fill="none" stroke="#F7F7F7" stroke-linecap="round" stroke-miterlimit="10" x1="145.609" y1="-257.374" x2="154.744" y2="-242.016"/>
			
				<line fill="none" stroke="#F7F7F7" stroke-linecap="round" stroke-miterlimit="10" x1="146.02" y1="-213.201" x2="154.333" y2="-229.019"/>
			
				<line fill="none" stroke="#F7F7F7" stroke-linecap="round" stroke-miterlimit="10" x1="14.536" y1="-142.652" x2="11.202" y2="-160.208"/>
			
				<line fill="none" stroke="#F7F7F7" stroke-linecap="round" stroke-miterlimit="10" x1="25.898" y1="-187.303" x2="28.683" y2="-204.954"/>
			
				<line fill="none" stroke="#F7F7F7" stroke-linecap="round" stroke-miterlimit="10" x1="120.879" y1="-163.713" x2="103.204" y2="-166.338"/>
			
				<line fill="none" stroke="#F7F7F7" stroke-linecap="round" stroke-miterlimit="10" x1="216.024" y1="-3.673" x2="199.584" y2="-10.678"/>
			
				<line fill="none" stroke="#F7F7F7" stroke-linecap="round" stroke-miterlimit="10" x1="247.287" y1="-34.752" x2="250.072" y2="-52.403"/>
			
				<line fill="none" stroke="#F7F7F7" stroke-linecap="round" stroke-miterlimit="10" x1="80.662" y1="-10.894" x2="64.223" y2="-17.9"/>
			
				<line fill="none" stroke="#F7F7F7" stroke-linecap="round" stroke-miterlimit="10" x1="16.002" y1="-119.451" x2="18.629" y2="-101.776"/>
			
				<line fill="none" stroke="#F7F7F7" stroke-linecap="round" stroke-miterlimit="10" x1="110.275" y1="-49.692" x2="106.198" y2="-67.09"/>
			
				<line fill="none" stroke="#F7F7F7" stroke-linecap="round" stroke-miterlimit="10" x1="167.996" y1="-278.961" x2="151.945" y2="-286.816"/>
			
				<line fill="none" stroke="#F7F7F7" stroke-linecap="round" stroke-miterlimit="10" x1="48.913" y1="-187.504" x2="64.002" y2="-197.077"/>
			
				<line fill="none" stroke="#F7F7F7" stroke-linecap="round" stroke-miterlimit="10" x1="78.457" y1="-210.096" x2="74.381" y2="-227.494"/>
			
				<line fill="none" stroke="#F7F7F7" stroke-linecap="round" stroke-miterlimit="10" x1="136.991" y1="-338.801" x2="134.953" y2="-347.5"/>
			
				<line fill="none" stroke="#F7F7F7" stroke-linecap="round" stroke-miterlimit="10" x1="204.871" y1="-291.821" x2="191.651" y2="-279.797"/>
		</g>
	</g>
</pattern>
<rect x="0" fill="#606FFF" width="1280" height="800"/>
<pattern  id="SVGID_1_" xlink:href="#Memphis_Pattern_1" patternTransform="matrix(1 0 0 -1 -0.5 -17634.3008)">
</pattern>
<rect x="0" opacity="0.7" fill="url(#SVGID_1_)" width="1280" height="800"/>
</svg>
